<svg width="16" height="16" viewBox="0 0 16 16" fill="none" xmlns="http://www.w3.org/2000/svg">
<path d="M15.7 9H15.3V8.4C15.3 7.6 14.6 7 13.7 7H1.4C0.7 7 0.9 7.5 0.7 8H0.3C0.1 8 0 8.1 0 8.3V11H0.5C0.5 9.6 1.6 8.5 3 8.5C4.4 8.5 5.5 9.6 5.5 11H9.5C9.5 9.6 10.6 8.5 12 8.5C13.4 8.5 14.5 9.6 14.5 11H16V9.3C16 9.2 15.9 9 15.7 9Z" fill="white"/>
<path d="M8.1 4L10.8 7H1.6C1.8 5.8 2.7 4 3.9 4H8.1ZM8.3 3H3.7C1.9 3 0.5 5.5 0.5 7.3V8H12V7L8.3 3Z" fill="white"/>
<path opacity="0.5" d="M12 10.5C12.3 10.5 12.5 10.7 12.5 11C12.5 11.3 12.3 11.5 12 11.5C11.7 11.5 11.5 11.3 11.5 11C11.5 10.7 11.7 10.5 12 10.5ZM12 9C10.9 9 10 9.9 10 11C10 12.1 10.9 13 12 13C13.1 13 14 12.1 14 11C14 9.9 13.1 9 12 9Z" fill="white"/>
<path opacity="0.5" d="M3 10.5C3.3 10.5 3.5 10.7 3.5 11C3.5 11.3 3.3 11.5 3 11.5C2.7 11.5 2.5 11.3 2.5 11C2.5 10.7 2.7 10.5 3 10.5ZM3 9C1.9 9 1 9.9 1 11C1 12.1 1.9 13 3 13C4.1 13 5 12.1 5 11C5 9.9 4.1 9 3 9Z" fill="white"/>
<path opacity="0.5" d="M5.5 3.5V7.5" stroke="white" stroke-miterlimit="10"/>
</svg>
